<svg width="1366" height="1849" viewBox="0 0 1366 1849" fill="none" xmlns="http://www.w3.org/2000/svg">
<ellipse cx="821.91" cy="889.604" rx="984.865" ry="494.24" transform="rotate(-4.68042 821.91 889.604)" fill="#389ED9" fill-opacity="0.06"/>
<path d="M2190.91 1240.28C2132.62 1353.68 1977.03 1418.35 1772.28 1431.06C1567.58 1443.77 1313.94 1404.52 1059.92 1310.28C805.897 1216.03 599.624 1084.65 471.469 948.443C343.287 812.208 293.374 671.287 351.664 557.89C409.955 444.493 565.552 379.819 770.3 367.107C975.003 354.397 1228.63 393.647 1482.66 487.894C1736.68 582.141 1942.95 713.522 2071.11 849.727C2199.29 985.963 2249.21 1126.88 2190.91 1240.28Z" stroke="#D9ECF6"/>
<ellipse cx="521.074" cy="852.115" rx="1017.18" ry="472.73" transform="rotate(-4.68042 521.074 852.115)" fill="#389ED9" fill-opacity="0.06"/>
<path d="M1538.27 768.958C1543.07 827.602 1519.37 885.829 1472.3 940.926C1425.22 996.025 1354.81 1047.96 1266.27 1094C1089.19 1186.07 839.718 1254.48 559.819 1277.4C279.919 1300.31 22.6385 1273.39 -167.055 1211.35C-261.902 1180.32 -339.828 1140.53 -395.236 1093.82C-450.642 1047.12 -483.502 993.519 -488.303 934.876C-493.104 876.232 -469.399 818.005 -422.328 762.908C-375.256 707.809 -304.84 655.872 -216.301 609.837C-39.2248 517.767 210.25 449.351 490.149 426.435C770.049 403.519 1027.33 430.447 1217.02 492.489C1311.87 523.511 1389.8 563.303 1445.2 610.012C1500.61 656.719 1533.47 710.315 1538.27 768.958Z" stroke="#A4D0EA"/>
</svg>
